{"title":"Põrguline 2007 EESTI SUB","uid":8945519,"size":1903641580,"categoryP":"video","categoryS":"movies","magnet":"?xt=urn:btih:fbb249799de95a7bacf97b5ec487784d12b1071c&amp;dn=P%26otilde%3Brguline+2007+EESTI+SUB&amp;tr=udp%3A%2F%2Ftracker.openbittorrent.com%3A80&amp;tr=udp%3A%2F%2Fopen.demonii.com%3A1337&amp;tr=udp%3A%2F%2Ftracker.coppersurfer.tk%3A6969&amp;tr=udp%3A%2F%2Fexodus.desync.com%3A6969","seeders":0,"leechers":1,"uploader":"immri","files":1,"time":1379722582,"description":"Format                                   : AVI\nFormat/Info                              : Audio Video Interleave\nFormat profile                           : OpenDML\nFile size                                : 1.77 GiB\nDuration                                 : 2h 3mn\nOverall bit rate                         : 2 058 Kbps\nWriting application                      : Lavf52.61.0\n\nVideo\nID                                       : 0\nFormat                                   : MPEG-4 Visual\nFormat profile                           : Simple@L3\nFormat settings, BVOP                    : No\nFormat settings, QPel                    : No\nFormat settings, GMC                     : No warppoints\nFormat settings, Matrix                  : Default (H.263)\nCodec ID                                 : XVID\nCodec ID/Hint                            : XviD\nDuration                                 : 2h 3mn\nBit rate                                 : 1 918 Kbps\nWidth                                    : 704 pixels\nHeight                                   : 396 pixels\nDisplay aspect ratio                     : 16:9\nFrame rate                               : 23.976 fps\nColor space                              : YUV\nChroma subsampling                       : 4:2:0\nBit depth                                : 8 bits\nScan type                                : Progressive\nCompression mode                         : Lossy\nBits/(Pixel*Frame)                       : 0.287\nStream size                              : 1.65 GiB (93%)\nWriting library                          : XviD 1.2.1 (UTC 2008-12-04)\n\nAudio\nID                                       : 1\nFormat                                   : MPEG Audio\nFormat version                           : Version 1\nFormat profile                           : Layer 3\nMode                                     : Joint stereo\nMode extension                           : MS Stereo\nCodec ID                                 : 55\nCodec ID/Hint                            : MP3\nDuration                                 : 2h 3mn\nBit rate mode                            : Constant\nBit rate                                 : 128 Kbps\nChannel(s)                               : 2 channels\nSampling rate                            : 44.1 KHz\nCompression mode                         : Lossy\nStream size                              : 113 MiB (6%)\nAlignment                                : Aligned on interleaves\nInterleave, duration                     : 26 ms (0.63 video frame)\nInterleave, preload duration             : 52 ms\nWriting library                          : LAME3.97","torrent":{"xt":"urn:btih:fbb249799de95a7bacf97b5ec487784d12b1071c","amp;dn":"P%26otilde%3Brguline+2007+EESTI+SUB","amp;tr":["udp%3A%2F%2Ftracker.openbittorrent.com%3A80","udp%3A%2F%2Fopen.demonii.com%3A1337","udp%3A%2F%2Ftracker.coppersurfer.tk%3A6969","udp%3A%2F%2Fexodus.desync.com%3A6969"],"infoHash":"fbb249799de95a7bacf97b5ec487784d12b1071c","infoHashBuffer":{"type":"Buffer","data":[251,178,73,121,157,233,90,123,172,249,123,94,196,135,120,77,18,177,7,28]},"announce":[],"urlList":[]}}